<?xml version="1.0" standalone="no"?>
<!DOCTYPE svg PUBLIC "-//W3C//DTD SVG 20010904//EN"
 "http://www.w3.org/TR/2001/REC-SVG-20010904/DTD/svg10.dtd">
<svg version="1.0" xmlns="http://www.w3.org/2000/svg"
 width="1386.000000pt" height="542.000000pt" viewBox="0 0 1386.000000 542.000000"
 preserveAspectRatio="xMidYMid meet">
<metadata>
Created by potrace 1.16, written by Peter Selinger 2001-2019
</metadata>
<g transform="translate(0.000000,542.000000) scale(0.100000,-0.100000)"
fill="#000000" stroke="none">
<path d="M0 2710 l0 -2710 6930 0 6930 0 0 2710 0 2710 -6930 0 -6930 0 0
-2710z m6021 1911 c17 -13 23 -29 23 -56 0 -46 -31 -75 -80 -75 -45 0 -74 30
-74 74 0 64 80 99 131 57z m-4066 -19 c268 -74 485 -251 608 -497 13 -27 37
-88 53 -135 27 -80 28 -95 29 -265 0 -203 -9 -251 -75 -391 -132 -285 -384
-480 -684 -533 -87 -16 -266 -13 -354 5 -338 69 -621 338 -713 679 -33 118
-33 345 -1 464 93 345 366 607 712 682 111 25 321 20 425 -9z m2675 -902 l0
-930 -348 0 -348 0 -62 63 -62 63 66 64 c36 36 72 77 80 92 14 26 13 29 -22
68 -20 22 -45 40 -56 40 -12 0 -54 -33 -99 -77 l-79 -76 -79 76 c-43 42 -86
77 -95 77 -24 0 -86 -60 -86 -83 0 -13 30 -51 77 -99 l77 -78 -64 -65 -64 -65
-348 0 -348 0 0 930 0 930 930 0 930 0 0 -930z m1120 570 l0 -360 -70 0 -70 0
0 360 0 360 70 0 70 0 0 -360z m2138 353 c-1 -5 -37 -41 -79 -80 -74 -71 -77
-73 -127 -73 -29 0 -52 3 -52 6 0 3 23 39 52 80 l52 74 79 0 c43 0 77 -3 75
-7z m972 -353 l0 -360 -65 0 c-64 0 -65 0 -65 27 l0 27 -27 -26 c-40 -37 -66
-48 -113 -48 -51 0 -112 30 -140 71 -55 76 -74 217 -44 318 19 66 82 136 133
152 39 12 133 8 164 -5 16 -7 17 1 17 98 l0 106 70 0 70 0 0 -360z m1380 0 l0
-360 -65 0 c-63 0 -65 1 -65 25 0 14 -4 25 -10 25 -5 0 -10 -4 -10 -10 0 -5
-17 -21 -37 -35 -44 -29 -117 -34 -162 -11 -43 23 -87 79 -107 138 -26 78 -24
199 5 263 44 99 106 139 210 133 36 -2 74 -8 84 -12 16 -7 17 1 17 98 l0 106
70 0 70 0 0 -360z m-4904 315 c66 -29 118 -84 146 -154 18 -47 22 -76 23 -176
0 -111 -2 -125 -28 -181 -32 -70 -81 -122 -147 -156 -39 -20 -59 -23 -150 -23
-99 0 -108 2 -160 31 -108 61 -155 168 -148 343 3 87 8 116 29 161 35 74 67
110 129 144 92 50 209 54 306 11z m1224 -183 l38 -38 41 38 c37 35 44 38 101
38 76 0 114 -19 140 -70 18 -36 20 -59 20 -250 l0 -210 -70 0 -70 0 0 185 c0
172 -1 186 -20 205 -27 27 -63 25 -97 -4 l-28 -24 -3 -181 -3 -181 -70 0 -69
0 0 185 c0 172 -1 186 -20 205 -27 27 -63 25 -97 -4 l-28 -24 -3 -181 -3 -181
-70 0 -69 0 0 260 0 260 65 0 c63 0 65 -1 65 -25 0 -32 5 -31 47 5 30 27 41
30 100 30 62 0 67 -2 103 -38z m846 16 c160 -109 123 -461 -54 -519 -34 -11
-122 -8 -154 6 -16 7 -18 -2 -18 -94 l0 -101 -75 0 -75 0 0 360 0 360 70 0 70
0 0 -32 c1 -31 1 -32 15 -14 30 39 68 56 129 56 45 0 68 -5 92 -22z m804 0
c71 -49 75 -61 78 -249 3 -156 5 -169 22 -169 13 0 20 -10 25 -40 4 -21 4 -44
0 -50 -3 -5 -33 -10 -66 -10 -46 0 -63 4 -79 20 -11 11 -20 25 -20 32 0 6 -12
0 -27 -14 -79 -75 -208 -61 -261 28 -27 46 -26 126 2 169 25 38 108 72 196 82
83 9 92 19 70 73 -22 54 -103 62 -179 19 -18 -11 -35 -19 -36 -17 -8 9 -45 89
-45 96 0 8 46 31 90 46 8 2 56 5 106 5 79 1 96 -2 124 -21z m1104 -1 c67 -38
76 -68 76 -250 0 -151 1 -159 20 -164 22 -6 34 -37 28 -74 -3 -21 -9 -24 -52
-27 -67 -4 -90 3 -106 33 l-14 25 -25 -24 c-79 -76 -215 -55 -261 39 -25 51
-25 88 -1 141 26 57 96 91 204 100 77 7 77 7 77 36 0 43 -15 65 -55 78 -41 13
-86 6 -134 -21 -18 -11 -35 -19 -36 -17 -8 9 -45 89 -45 97 0 5 24 19 53 30
77 30 218 29 271 -2z m1376 3 c73 -37 110 -110 110 -216 l0 -64 -160 0 c-176
0 -176 0 -145 -60 37 -71 114 -94 208 -62 l56 19 17 -50 c16 -48 16 -51 -1
-63 -29 -21 -125 -37 -197 -32 -112 8 -193 71 -224 174 -41 138 13 301 117
352 59 29 164 30 219 2z m-4650 -250 l0 -260 -70 0 -70 0 0 260 0 260 70 0 70
0 0 -260z m1720 0 l0 -260 -75 0 -75 0 0 260 0 260 75 0 75 0 0 -260z m1359
-1095 c46 -23 54 -66 20 -109 -41 -52 -139 -24 -139 40 0 67 58 101 119 69z
m-649 -4 c0 -5 -35 -41 -79 -80 -76 -68 -80 -71 -130 -71 -28 0 -51 2 -51 6 0
3 25 39 55 80 l55 74 75 0 c41 0 75 -4 75 -9z m2520 -356 l0 -365 -65 0 -65 0
0 31 0 31 -40 -36 c-36 -33 -45 -36 -99 -36 -67 0 -111 23 -148 79 -74 109
-69 308 9 397 49 55 99 76 172 72 33 -2 69 -8 79 -12 16 -7 17 1 17 98 l0 106
70 0 70 0 0 -365z m-5826 163 c32 -90 71 -199 87 -243 25 -71 29 -77 37 -55 5
14 42 123 82 243 l74 217 87 0 88 0 5 -32 c3 -18 8 -118 11 -223 3 -104 8
-245 12 -312 l6 -123 -75 0 -75 0 -6 128 c-4 70 -7 172 -7 227 l0 100 -34 -95
c-18 -52 -55 -155 -81 -227 l-48 -133 -56 0 -57 0 -48 133 c-27 72 -64 175
-83 227 l-33 95 0 -106 c0 -58 -3 -161 -7 -227 l-6 -122 -63 0 c-35 0 -65 3
-67 8 -3 6 18 671 22 680 1 1 41 2 89 2 l88 0 58 -162z m1316 62 l0 -70 60 0
60 0 0 -55 0 -55 -61 0 -60 0 3 -145 c2 -96 7 -148 15 -156 7 -7 34 -13 60
-13 l48 -1 5 -47 c7 -57 5 -58 -96 -58 -149 0 -173 38 -174 268 l0 152 -40 0
-40 0 0 55 0 55 39 0 40 0 3 52 3 52 55 17 c83 26 80 28 80 -51z m2300 0 l0
-70 60 0 60 0 0 -55 0 -55 -61 0 -61 0 4 -145 c2 -95 7 -148 15 -156 7 -7 34
-13 60 -13 l48 -1 6 -45 c4 -28 2 -48 -5 -52 -21 -14 -166 -9 -196 7 -55 28
-64 62 -68 243 l-4 162 -39 0 -39 0 0 55 0 55 39 0 40 0 3 52 3 52 55 17 c83
26 80 28 80 -51z m-2674 -76 c65 -48 69 -60 72 -245 3 -155 5 -169 21 -169 13
0 21 -10 25 -31 12 -62 10 -66 -43 -73 -59 -8 -97 5 -113 39 l-11 25 -26 -24
c-40 -37 -65 -46 -124 -46 -92 0 -157 64 -157 153 0 97 64 151 201 168 46 5
88 14 93 19 13 13 -4 69 -27 85 -30 21 -105 19 -151 -5 -22 -10 -42 -17 -46
-15 -3 2 -15 22 -25 44 -15 33 -16 43 -5 56 39 47 261 60 316 19z m899 7 c77
-35 113 -98 122 -212 l6 -69 -167 0 -166 0 6 -27 c21 -93 118 -135 225 -98 48
17 50 16 73 -43 l16 -43 -37 -16 c-49 -21 -199 -29 -246 -14 -19 7 -54 26 -77
42 -117 85 -129 319 -22 433 61 64 183 86 267 47z m588 0 c15 -10 35 -28 44
-40 l15 -23 31 32 c39 40 65 50 125 50 62 0 108 -29 132 -83 17 -37 20 -67 20
-249 l0 -208 -69 0 -70 0 -3 191 c-3 187 -4 191 -27 210 -33 27 -58 24 -92
-10 l-29 -29 0 -181 0 -181 -70 0 -70 0 0 174 c0 96 -4 186 -10 200 -21 56
-103 56 -129 0 -7 -16 -11 -91 -11 -199 l0 -175 -70 0 -70 0 0 265 0 265 65 0
65 0 0 -32 c1 -31 1 -32 15 -14 43 57 149 76 208 37z m813 -7 c65 -48 69 -60
72 -245 3 -155 5 -169 21 -169 13 0 21 -10 25 -31 12 -62 10 -66 -43 -73 -59
-8 -97 5 -113 39 l-11 25 -26 -24 c-40 -37 -65 -46 -124 -46 -90 0 -157 65
-157 153 0 97 64 151 200 168 46 5 87 12 92 15 17 10 7 56 -17 79 -31 32 -103
34 -160 5 -22 -11 -41 -20 -43 -20 -2 0 -12 21 -23 46 -16 36 -18 48 -8 60 38
46 261 59 315 18z m1204 16 c63 -18 64 -21 39 -81 -12 -30 -24 -56 -25 -58 -2
-2 -19 4 -38 13 -83 39 -148 8 -172 -83 -18 -70 -4 -140 36 -180 37 -36 71
-43 133 -24 27 8 50 13 51 11 1 -2 10 -23 19 -48 14 -35 15 -47 5 -56 -23 -21
-80 -34 -150 -34 -165 0 -257 111 -246 297 7 116 54 193 143 234 45 21 148 25
205 9z m450 -12 c75 -38 84 -66 88 -255 3 -150 5 -163 22 -163 14 0 19 -10 22
-46 2 -25 1 -47 -2 -49 -4 -2 -29 -7 -58 -11 -48 -6 -53 -5 -83 25 l-32 32
-21 -20 c-30 -28 -70 -41 -124 -41 -90 0 -152 64 -152 155 0 100 59 148 205
167 l85 11 0 38 c0 28 -6 42 -22 53 -31 22 -104 20 -156 -4 l-42 -19 -25 49
-25 49 23 12 c82 45 226 52 297 17z m1398 3 c89 -46 135 -133 135 -256 1 -173
-93 -279 -248 -278 -83 1 -111 10 -163 58 -58 52 -84 120 -84 220 0 124 45
210 135 254 57 28 172 29 225 2z m-2308 -256 l0 -265 -70 0 -70 0 0 265 0 265
70 0 70 0 0 -265z m-7180 6 c336 -98 599 -378 666 -710 23 -115 15 -345 -15
-446 -74 -248 -257 -467 -486 -580 -147 -73 -221 -89 -415 -89 -152 0 -172 2
-255 28 -326 99 -570 355 -652 683 -26 103 -23 342 5 445 95 348 371 609 722
684 99 20 334 12 430 -15z m2240 -381 l0 -410 -263 0 c-191 0 -266 -3 -275
-12 -19 -19 -15 -113 5 -129 12 -11 74 -15 275 -17 l258 -3 0 -440 0 -440
-337 4 c-382 4 -398 6 -562 83 -118 55 -199 113 -282 202 -112 118 -178 231
-226 389 -24 80 -27 102 -27 253 0 151 3 173 27 253 87 283 274 492 546 611
130 56 203 65 549 65 l312 1 0 -410z m6132 -727 c40 -46 27 -105 -27 -123 -56
-18 -105 13 -105 67 0 45 30 73 78 73 25 0 45 -7 54 -17z m-4997 -35 c65 -34
97 -69 132 -143 25 -54 27 -71 28 -175 0 -187 -47 -280 -172 -342 -61 -30 -76
-33 -153 -32 -139 0 -229 56 -284 173 -18 40 -21 64 -21 181 0 117 3 141 21
181 39 84 114 151 204 180 14 5 63 7 110 5 68 -2 95 -8 135 -28z m2865 19 c92
-22 92 -22 64 -91 -13 -33 -26 -61 -27 -63 -2 -2 -21 4 -43 13 -50 21 -140 22
-179 2 -68 -36 -105 -108 -105 -208 0 -67 14 -113 48 -159 47 -64 158 -90 239
-56 49 21 49 20 66 -27 8 -24 18 -50 21 -59 9 -21 -46 -46 -129 -59 -159 -25
-302 42 -373 175 -25 46 -27 59 -27 175 0 145 13 186 86 265 87 94 212 126
359 92z m-1450 -112 l0 -75 60 0 60 0 0 -50 0 -50 -60 0 -60 0 0 -140 c0 -128
2 -142 21 -161 17 -17 28 -19 59 -14 l39 7 7 -47 c4 -29 2 -51 -4 -57 -6 -6
-46 -11 -89 -12 -89 -1 -120 13 -153 67 -18 28 -20 51 -20 195 l0 162 -45 0
-45 0 0 50 0 50 45 0 45 0 0 54 0 54 58 20 c85 30 82 32 82 -53z m2320 0 l0
-75 60 0 60 0 0 -50 0 -50 -60 0 -60 0 0 -140 c0 -128 2 -142 21 -161 17 -17
28 -19 59 -14 l39 7 7 -47 c4 -29 2 -51 -4 -57 -6 -6 -46 -11 -89 -12 -89 -1
-120 13 -153 67 -18 28 -20 51 -20 195 l0 162 -45 0 -45 0 0 50 0 50 45 0 45
0 0 54 0 54 58 20 c85 30 82 32 82 -53z m-3172 -60 c81 -34 123 -103 130 -212
l5 -73 -163 0 -163 0 6 -36 c14 -88 117 -128 227 -89 24 8 44 14 45 13 4 -8
35 -95 35 -101 0 -15 -119 -40 -190 -40 -65 -1 -83 4 -129 28 -92 50 -130 120
-131 240 0 85 11 127 49 186 54 85 182 124 279 84z m525 -1 l46 -16 -20 -51
c-12 -29 -22 -53 -23 -55 -2 -1 -19 5 -39 13 -73 30 -142 11 -135 -38 2 -16
23 -30 83 -55 121 -50 150 -87 143 -177 -8 -98 -81 -155 -201 -158 -67 -2
-156 19 -163 38 -3 6 4 32 15 58 l20 46 43 -19 c75 -34 153 -19 153 30 0 26
-9 32 -127 85 -68 31 -98 72 -98 135 0 77 53 148 127 170 46 14 126 11 176 -6z
m843 -3 c83 -38 123 -108 124 -213 l0 -68 -161 0 -161 0 6 -32 c3 -18 13 -43
22 -56 32 -49 128 -66 209 -37 22 8 41 15 42 15 2 0 33 -93 33 -101 0 -17
-108 -42 -180 -42 -160 0 -257 91 -268 249 -8 130 48 242 142 285 53 24 139
24 192 0z m1428 -10 c62 -39 70 -65 76 -251 4 -146 7 -165 21 -162 13 2 18 -8
21 -44 3 -41 1 -47 -20 -55 -13 -5 -41 -9 -62 -9 -31 0 -43 6 -65 31 l-26 32
-22 -20 c-37 -34 -63 -43 -127 -43 -57 0 -63 3 -102 39 -38 35 -42 43 -46 99
-4 50 0 67 17 96 30 48 95 77 189 85 l77 6 3 35 c4 51 -16 72 -74 77 -45 5
-78 -4 -136 -35 -4 -2 -18 19 -32 46 l-25 50 37 18 c58 28 91 33 178 30 63 -2
88 -7 118 -25z m907 2 c65 -41 73 -68 77 -256 4 -159 5 -167 23 -162 17 6 19
1 19 -43 0 -43 -3 -50 -22 -56 -65 -17 -125 3 -141 46 -3 10 -11 7 -28 -8 -39
-35 -65 -44 -126 -44 -99 0 -153 53 -153 150 0 105 64 157 208 169 l77 6 3 35
c4 51 -16 72 -76 78 -39 3 -61 -1 -97 -18 -25 -12 -48 -21 -49 -19 -6 6 -46
88 -46 92 0 7 71 39 105 48 17 5 66 7 111 5 61 -2 89 -7 115 -23z m515 14 c3
-2 -4 -34 -13 -71 l-18 -67 -32 6 c-32 6 -71 -7 -85 -29 -4 -6 -8 -91 -8 -188
l0 -178 -70 0 -70 0 0 229 c0 126 -3 243 -6 260 l-6 31 66 0 66 0 0 -31 0 -32
22 28 c28 36 75 56 117 51 18 -3 35 -7 37 -9z m744 -5 c22 -12 44 -35 58 -62
21 -42 22 -56 22 -252 l0 -208 -70 0 -70 0 0 183 c0 198 -5 219 -55 231 -34 9
-89 -18 -104 -50 -7 -15 -11 -89 -11 -194 l0 -170 -70 0 -70 0 0 260 0 260 65
0 c63 0 65 -1 65 -25 0 -31 11 -32 36 -4 44 49 141 64 204 31z m508 3 c81 -34
123 -103 130 -212 l5 -73 -162 0 -161 0 0 -29 c0 -87 118 -136 230 -96 24 8
44 14 45 13 3 -4 35 -100 35 -105 0 -11 -129 -36 -190 -36 -167 0 -260 99
-260 275 1 126 43 208 132 252 61 30 138 35 196 11z m608 -1 c18 -9 44 -33 56
-53 22 -34 23 -48 26 -253 l3 -218 -70 0 -71 0 0 178 c0 192 -6 219 -52 234
-36 12 -95 -13 -108 -47 -6 -15 -10 -103 -10 -196 l0 -169 -70 0 -70 0 0 260
0 260 65 0 65 0 0 -31 0 -32 25 27 c50 54 144 72 211 40z m511 -5 l32 -14 -21
-50 c-12 -27 -22 -51 -23 -53 -1 -1 -18 5 -38 13 -70 29 -137 14 -137 -31 0
-21 9 -29 58 -49 94 -40 126 -61 150 -96 20 -28 23 -44 20 -90 -8 -107 -82
-163 -217 -162 -80 0 -151 21 -151 45 0 7 9 32 20 55 l19 43 43 -20 c65 -30
137 -23 152 15 11 28 -11 52 -71 75 -122 48 -153 81 -153 165 0 75 42 133 117
161 45 17 153 13 200 -7z m441 6 c81 -34 123 -103 130 -212 l5 -73 -162 0
-161 0 0 -29 c0 -87 118 -136 230 -96 24 8 44 14 45 13 3 -4 35 -100 35 -105
0 -11 -129 -36 -190 -36 -167 0 -260 99 -260 275 1 126 43 208 132 252 61 30
138 35 196 11z m-2578 -265 l0 -260 -70 0 -70 0 0 260 0 260 70 0 70 0 0 -260z"/>
<path d="M1662 3967 c-6 -7 -12 -49 -14 -92 l-3 -80 -80 -3 c-67 -2 -83 -6
-97 -23 -22 -26 -23 -77 -2 -107 14 -20 24 -22 100 -22 l84 0 0 -83 c0 -51 5
-88 12 -95 7 -7 36 -12 65 -12 66 0 73 12 73 114 l0 76 83 0 c51 0 88 5 95 12
7 7 12 36 12 65 0 66 -12 73 -114 73 l-76 0 0 76 c0 103 -7 114 -74 114 -32 0
-58 -5 -64 -13z"/>
<path d="M8580 4320 c-31 -31 -40 -64 -40 -138 1 -143 85 -217 160 -142 18 18
20 34 20 144 0 118 -1 126 -22 140 -32 23 -94 20 -118 -4z"/>
<path d="M9958 4321 c-66 -53 -63 -230 5 -287 35 -30 78 -27 112 7 18 17 20
33 20 144 0 81 -4 128 -12 136 -6 6 -31 13 -55 16 -34 4 -49 0 -70 -16z"/>
<path d="M5124 4471 c-58 -26 -86 -88 -92 -197 -6 -109 15 -180 65 -224 34
-30 40 -32 99 -28 49 3 69 9 88 27 42 39 61 105 61 206 0 76 -4 98 -25 139
-14 28 -36 58 -50 68 -39 28 -98 32 -146 9z"/>
<path d="M7206 4299 c-26 -20 -26 -22 -26 -149 0 -138 2 -145 57 -156 45 -9
87 17 107 66 18 46 21 127 6 182 -20 71 -91 99 -144 57z"/>
<path d="M8043 4115 c-67 -29 -48 -115 25 -115 49 0 79 30 88 88 l7 42 -44 0
c-24 -1 -58 -7 -76 -15z"/>
<path d="M9161 4121 c-13 -3 -34 -19 -45 -34 -19 -26 -19 -30 -5 -55 15 -28
51 -39 95 -28 28 7 54 53 54 96 0 28 -2 30 -37 29 -21 -1 -49 -4 -62 -8z"/>
<path d="M10506 4309 c-14 -17 -26 -39 -26 -50 0 -17 8 -19 95 -19 102 0 109
4 83 53 -18 34 -40 46 -85 47 -34 0 -46 -5 -67 -31z"/>
<path d="M10723 2779 c-12 -7 -29 -26 -37 -44 -20 -42 -21 -164 -2 -209 28
-66 96 -86 141 -41 24 23 25 30 25 148 0 97 -3 127 -15 137 -20 17 -86 22
-112 9z"/>
<path d="M5954 2569 c-66 -19 -82 -75 -32 -112 25 -19 30 -19 65 -6 31 12 40
22 52 57 7 23 10 49 7 57 -6 17 -44 18 -92 4z"/>
<path d="M6847 2779 c-16 -9 -47 -65 -47 -84 0 -3 43 -5 95 -5 92 0 95 1 95
23 -1 58 -88 98 -143 66z"/>
<path d="M8254 2569 c-47 -13 -70 -44 -58 -76 5 -15 20 -34 34 -41 22 -12 30
-12 62 1 29 12 39 24 49 55 6 22 9 48 6 56 -7 18 -43 20 -93 5z"/>
<path d="M9920 2570 c-84 -20 -80 -124 5 -124 50 0 85 39 85 95 0 36 -2 39
-27 38 -16 -1 -44 -5 -63 -9z"/>
<path d="M11285 2754 c-62 -67 -53 -257 14 -294 58 -30 120 4 140 76 23 81 7
179 -34 220 -34 33 -88 33 -120 -2z"/>
<path d="M1665 2017 c-15 -12 -20 -27 -20 -66 0 -28 6 -56 13 -63 19 -19 120
-17 132 2 12 19 13 100 1 119 -13 21 -101 26 -126 8z"/>
<path d="M1500 1783 c-22 -9 -30 -24 -30 -63 0 -66 -4 -65 244 -68 216 -3 226
-2 245 17 27 27 27 75 1 101 -19 19 -33 20 -232 19 -117 0 -220 -3 -228 -6z"/>
<path d="M1665 1557 c-15 -12 -20 -27 -20 -67 0 -66 20 -83 89 -77 56 5 66 16
66 77 0 25 -4 51 -9 59 -13 21 -101 26 -126 8z"/>
<path d="M5109 1357 c-50 -33 -72 -87 -77 -187 -7 -138 28 -223 104 -249 92
-32 173 19 200 129 33 131 -2 275 -76 312 -49 25 -110 23 -151 -5z"/>
<path d="M5757 1220 c-25 -20 -50 -73 -40 -84 10 -9 193 -7 193 3 0 29 -26 74
-51 86 -39 20 -72 19 -102 -5z"/>
<path d="M7135 1231 c-29 -12 -44 -33 -51 -69 l-6 -32 97 0 98 0 -7 32 c-4 18
-15 41 -24 51 -21 21 -78 30 -107 18z"/>
<path d="M8522 1008 c-42 -21 -43 -83 -1 -107 54 -30 119 12 119 79 l0 40 -47
-1 c-27 0 -58 -5 -71 -11z"/>
<path d="M9435 1008 c-27 -15 -35 -28 -35 -60 0 -31 32 -58 68 -58 37 0 82 52
82 94 l0 36 -47 0 c-27 0 -57 -6 -68 -12z"/>
<path d="M11227 1220 c-25 -20 -50 -73 -40 -84 10 -10 181 -7 187 3 11 18 -17
72 -45 86 -39 20 -72 19 -102 -5z"/>
<path d="M12787 1220 c-25 -20 -50 -73 -40 -84 10 -10 181 -7 187 3 11 18 -17
72 -45 86 -39 20 -72 19 -102 -5z"/>
</g>
</svg>
